<svg width="100" height="100" viewBox="0 0 100 100" fill="none" xmlns="http://www.w3.org/2000/svg">
<rect width="100" height="100" fill="#242424"/>
<path d="M36.3146 69.5V30.2273H50.6967C53.4837 30.2273 55.7912 30.6875 57.6193 31.608C59.4474 32.5156 60.8153 33.7493 61.723 35.3089C62.6307 36.8558 63.0845 38.6009 63.0845 40.544C63.0845 42.1804 62.7841 43.5611 62.1832 44.6861C61.5824 45.7983 60.777 46.6932 59.767 47.3707C58.7699 48.0355 57.6705 48.5213 56.4688 48.8281V49.2116C57.7727 49.2756 59.0447 49.6974 60.2848 50.4773C61.5376 51.2443 62.5732 52.3374 63.3913 53.7564C64.2095 55.1754 64.6186 56.9013 64.6186 58.9339C64.6186 60.9411 64.1456 62.7436 63.1996 64.3416C62.2663 65.9268 60.8217 67.1861 58.8658 68.1193C56.9098 69.0398 54.4105 69.5 51.3679 69.5H36.3146ZM42.2401 64.4183H50.7926C53.6307 64.4183 55.6634 63.8686 56.8906 62.7692C58.1179 61.6697 58.7315 60.2955 58.7315 58.6463C58.7315 57.4062 58.4183 56.2685 57.7919 55.233C57.1655 54.1974 56.2706 53.3729 55.1072 52.7592C53.9567 52.1456 52.5888 51.8388 51.0036 51.8388H42.2401V64.4183ZM42.2401 47.2173H50.179C51.5085 47.2173 52.7038 46.9616 53.7649 46.4503C54.8388 45.9389 55.6889 45.223 56.3153 44.3026C56.9545 43.3693 57.2741 42.2699 57.2741 41.0043C57.2741 39.3807 56.7053 38.0192 55.5675 36.9197C54.4297 35.8203 52.6847 35.2706 50.3324 35.2706H42.2401V47.2173Z" fill="white"/>
</svg>
