<svg width="561" height="561" viewBox="0 0 561 561" fill="none" xmlns="http://www.w3.org/2000/svg">
<rect width="561" height="561" fill="#242424"/>
<path d="M168.955 444V116.727H288.806C312.031 116.727 331.26 120.562 346.494 128.233C361.729 135.797 373.128 146.077 380.692 159.075C388.256 171.965 392.038 186.507 392.038 202.7C392.038 216.337 389.534 227.842 384.527 237.217C379.52 246.486 372.808 253.943 364.392 259.589C356.082 265.129 346.92 269.178 336.906 271.734V274.93C347.773 275.463 358.373 278.979 368.707 285.477C379.147 291.869 387.776 300.978 394.594 312.803C401.413 324.629 404.822 339.011 404.822 355.95C404.822 372.675 400.88 387.697 392.996 401.013C385.219 414.224 373.181 424.717 356.881 432.494C340.582 440.165 319.754 444 294.399 444H168.955ZM218.334 401.653H289.605C313.256 401.653 330.195 397.072 340.422 387.91C350.649 378.748 355.763 367.295 355.763 353.553C355.763 343.219 353.153 333.737 347.933 325.108C342.712 316.479 335.255 309.607 325.56 304.494C315.972 299.38 304.573 296.823 291.363 296.823H218.334V401.653ZM218.334 258.311H284.491C295.571 258.311 305.532 256.18 314.374 251.919C323.323 247.658 330.408 241.692 335.628 234.021C340.955 226.244 343.618 217.082 343.618 206.536C343.618 193.006 338.877 181.66 329.396 172.498C319.914 163.336 305.372 158.755 285.77 158.755H218.334V258.311Z" fill="white"/>
</svg>
